<svg width="119" height="58" viewBox="0 0 119 58" fill="none" xmlns="http://www.w3.org/2000/svg">
<path d="M26.864 2.368C27.392 2.68 27.872 3.052 28.304 3.484C28.76 3.916 29.204 4.492 29.636 5.212C30.068 5.908 30.392 6.712 30.608 7.624C30.824 8.512 30.98 9.592 31.076 10.864C31.172 12.112 31.088 13.492 30.824 15.004C30.152 19.564 28.88 24.016 27.008 28.36C25.16 32.704 22.82 36.676 19.988 40.276C17.588 43.3 15.116 45.712 12.572 47.512C10.052 49.336 7.868 50.248 6.02 50.248C5.996 50.248 5.972 50.248 5.948 50.248C5.636 50.248 5.336 50.212 5.048 50.14C4.712 52.156 4.496 53.716 4.4 54.82C4.448 54.7 4.496 54.58 4.544 54.46C4.616 54.268 4.736 54.136 4.904 54.064C5.096 53.992 5.276 53.992 5.444 54.064C5.636 54.136 5.768 54.256 5.84 54.424C5.912 54.616 5.912 54.796 5.84 54.964C5.432 55.972 5.084 56.68 4.796 57.088C4.532 57.52 4.232 57.736 3.896 57.736C3.824 57.736 3.74 57.712 3.644 57.664C3.38 57.592 3.188 57.4 3.068 57.088C2.972 56.8 2.96 56.056 3.032 54.856C3.128 53.656 3.368 51.904 3.752 49.6C2.768 48.928 2.192 47.824 2.024 46.288C2 46.168 2.012 46.048 2.06 45.928C2.108 45.808 2.18 45.712 2.276 45.64C2.396 45.568 2.516 45.52 2.636 45.496C2.732 45.496 2.816 45.508 2.888 45.532C2.984 45.556 3.068 45.592 3.14 45.64C3.212 45.712 3.272 45.784 3.32 45.856C3.368 45.928 3.392 46.012 3.392 46.108C3.488 46.9 3.692 47.512 4.004 47.944C4.964 42.376 6.896 32.488 9.8 18.28C11.048 12.112 11.9 7.876 12.356 5.572C11.972 5.812 11.612 6.052 11.276 6.292C10.148 7.108 9.092 8.02 8.108 9.028C7.124 10.012 6.188 11.152 5.3 12.448C4.436 13.72 3.752 15.064 3.248 16.48C2.744 17.872 2.408 19.384 2.24 21.016C2.072 22.624 2.192 24.268 2.6 25.948C2.624 26.14 2.588 26.32 2.492 26.488C2.396 26.632 2.252 26.728 2.06 26.776C1.868 26.8 1.688 26.764 1.52 26.668C1.376 26.572 1.28 26.428 1.232 26.236C0.8 24.436 0.668 22.672 0.836 20.944C1.028 19.192 1.388 17.56 1.916 16.048C2.468 14.536 3.2 13.096 4.112 11.728C5.048 10.36 6.032 9.148 7.064 8.092C8.12 7.012 9.248 6.04 10.448 5.176C11.192 4.648 11.936 4.168 12.68 3.736C12.872 2.728 13.04 1.864 13.184 1.144C13.208 0.951998 13.292 0.807998 13.436 0.711999C13.604 0.592 13.784 0.555999 13.976 0.603999C14.168 0.628 14.312 0.724 14.408 0.891999C14.528 1.036 14.576 1.204 14.552 1.396C14.456 1.828 14.36 2.344 14.264 2.944C16.616 1.816 18.896 1.204 21.104 1.108C23.336 0.987997 25.256 1.408 26.864 2.368ZM29.456 14.824C29.84 12.016 29.756 9.664 29.204 7.768C28.652 5.848 27.632 4.432 26.144 3.52C24.632 2.632 22.796 2.296 20.636 2.512C18.476 2.704 16.244 3.412 13.94 4.636C13.46 7.084 12.524 11.728 11.132 18.568C8.132 33.304 6.176 43.372 5.264 48.772C5.48 48.82 5.708 48.856 5.948 48.88C5.972 48.88 5.996 48.88 6.02 48.88C7.508 48.88 9.416 48.064 11.744 46.432C14.096 44.824 16.472 42.484 18.872 39.412C19.832 38.212 20.768 36.892 21.68 35.452C22.592 34.012 23.588 32.248 24.668 30.16C25.748 28.072 26.708 25.696 27.548 23.032C28.412 20.368 29.048 17.632 29.456 14.824ZM39.6651 28.72C39.8571 28.672 40.0371 28.696 40.2051 28.792C40.3731 28.888 40.4691 29.032 40.4931 29.224C40.5411 29.416 40.5171 29.596 40.4211 29.764C39.7491 30.82 38.9331 31.924 37.9731 33.076C37.0371 34.204 35.9691 35.224 34.7691 36.136C33.5931 37.048 32.5971 37.504 31.7811 37.504C31.4931 37.504 31.2411 37.456 31.0251 37.36C29.4171 36.664 29.2491 33.844 30.5211 28.9C30.5691 28.708 30.6771 28.564 30.8451 28.468C31.0131 28.372 31.1811 28.348 31.3491 28.396C31.5411 28.444 31.6851 28.552 31.7811 28.72C31.8771 28.888 31.9011 29.056 31.8531 29.224C31.5651 30.376 31.3491 31.396 31.2051 32.284C31.0851 33.148 31.0251 33.808 31.0251 34.264C31.0491 34.72 31.0971 35.104 31.1691 35.416C31.2651 35.704 31.3371 35.884 31.3851 35.956C31.4571 36.004 31.5171 36.04 31.5651 36.064C32.1891 36.328 33.3171 35.704 34.9491 34.192C36.6051 32.68 38.0331 30.952 39.2331 29.008C39.3531 28.864 39.4971 28.768 39.6651 28.72ZM31.7091 25.912C31.0131 25.864 30.7971 25.576 31.0611 25.048C31.3011 24.616 31.6131 24.328 31.9971 24.184C32.5971 23.992 32.9571 24.148 33.0771 24.652C33.1971 25.132 33.0171 25.492 32.5371 25.732C32.2971 25.852 32.0211 25.912 31.7091 25.912ZM54.0676 28.576C54.2596 28.552 54.4276 28.612 54.5716 28.756C54.7156 28.876 54.7996 29.032 54.8236 29.224C54.8476 29.416 54.7876 29.584 54.6436 29.728C49.9876 35.152 47.3236 38.284 46.6516 39.124C46.2436 39.652 45.8476 40.168 45.4636 40.672C45.7996 42.04 45.8236 43.36 45.5356 44.632C45.2476 45.904 44.8396 46.996 44.3116 47.908C43.7836 48.82 43.1596 49.564 42.4396 50.14C41.7676 50.716 41.1436 51.004 40.5676 51.004C40.2076 51.004 39.9076 50.884 39.6676 50.644C38.3956 49.42 39.8236 46 43.9516 40.384C43.6876 39.472 43.2676 38.584 42.6916 37.72C41.4916 35.92 40.6036 34.42 40.0276 33.22C39.4516 32.02 39.1876 30.928 39.2356 29.944C39.2836 28.984 39.5356 28.12 39.9916 27.352C40.4716 26.584 41.1076 25.96 41.8996 25.48C42.5716 25.072 43.2796 24.832 44.0236 24.76C44.7676 24.688 45.4516 24.796 46.0756 25.084C46.2436 25.18 46.3516 25.324 46.3996 25.516C46.4716 25.684 46.4596 25.852 46.3636 26.02C46.2916 26.188 46.1596 26.308 45.9676 26.38C45.7996 26.428 45.6316 26.416 45.4636 26.344C44.5996 25.936 43.6516 26.044 42.6196 26.668C41.3716 27.412 40.7116 28.528 40.6396 30.016C40.5916 30.808 40.8436 31.756 41.3956 32.86C41.9476 33.94 42.7636 35.296 43.8436 36.928C44.2996 37.624 44.6716 38.332 44.9596 39.052C45.1516 38.812 45.3556 38.548 45.5716 38.26C46.2436 37.42 48.9196 34.276 53.5996 28.828C53.7196 28.684 53.8756 28.6 54.0676 28.576ZM42.8716 47.584C43.9276 45.976 44.3956 44.212 44.2756 42.292C43.2676 43.732 42.4516 45.016 41.8276 46.144C41.2276 47.272 40.8556 48.076 40.7116 48.556C40.5916 49.06 40.5556 49.408 40.6036 49.6C40.8196 49.576 41.1436 49.384 41.5756 49.024C42.0076 48.688 42.4396 48.208 42.8716 47.584ZM64.4472 28.72C64.6392 28.672 64.8072 28.708 64.9512 28.828C65.1192 28.924 65.2272 29.068 65.2752 29.26C65.3232 29.452 65.2872 29.62 65.1672 29.764C64.3752 30.988 63.6792 32.02 63.0792 32.86C62.5032 33.7 61.8432 34.6 61.0992 35.56C60.3552 36.496 59.6712 37.24 59.0472 37.792C58.4472 38.368 57.8112 38.836 57.1392 39.196C56.4672 39.58 55.8312 39.772 55.2312 39.772C55.0152 39.772 54.7992 39.748 54.5832 39.7C53.7192 39.508 53.0592 39.004 52.6032 38.188C52.1232 37.108 51.9192 35.932 51.9912 34.66C52.0392 33.364 52.2912 32.092 52.7472 30.844C53.2272 29.524 53.8272 28.504 54.5472 27.784C55.2912 27.064 55.9872 26.812 56.6352 27.028C56.7792 27.076 56.9112 27.148 57.0312 27.244C57.1512 27.316 57.2952 27.484 57.4632 27.748C57.6312 27.988 57.7152 28.312 57.7152 28.72C57.7152 29.128 57.6432 29.656 57.4992 30.304C57.4512 30.496 57.3432 30.64 57.1752 30.736C57.0312 30.832 56.8632 30.856 56.6712 30.808C56.4792 30.76 56.3352 30.652 56.2392 30.484C56.1432 30.316 56.1192 30.148 56.1672 29.98C56.4072 29.068 56.4192 28.516 56.2032 28.324C56.1072 28.324 55.9512 28.396 55.7352 28.54C55.5432 28.684 55.2792 29.008 54.9432 29.512C54.6072 29.992 54.3072 30.604 54.0432 31.348C53.6112 32.476 53.3712 33.628 53.3232 34.804C53.2992 35.956 53.4672 36.856 53.8272 37.504C54.0672 37.96 54.4152 38.236 54.8712 38.332C55.2792 38.428 55.7352 38.368 56.2392 38.152C56.7672 37.936 57.3192 37.552 57.8952 37C58.4952 36.424 59.0352 35.872 59.5152 35.344C59.9952 34.792 60.5472 34.072 61.1712 33.184C61.8192 32.272 62.3112 31.576 62.6472 31.096C62.9832 30.592 63.4392 29.896 64.0152 29.008C64.1112 28.864 64.2552 28.768 64.4472 28.72ZM75.8296 29.008C76.0216 28.984 76.1896 29.032 76.3336 29.152C76.5016 29.272 76.5976 29.428 76.6216 29.62C76.6456 29.812 76.5976 29.98 76.4776 30.124C75.4936 31.396 74.3176 32.392 72.9496 33.112C71.5816 33.832 70.2976 34.06 69.0976 33.796C68.7616 34.612 68.2936 35.26 67.6936 35.74C67.0936 36.196 66.4696 36.424 65.8216 36.424H65.7856C65.1376 36.4 64.5616 36.184 64.0576 35.776C63.5776 35.344 63.2416 34.756 63.0496 34.012C62.7376 32.836 62.7976 31.72 63.2296 30.664C63.6376 29.584 64.2376 28.792 65.0296 28.288C65.1976 28.168 65.3896 28.144 65.6056 28.216C65.8216 27.688 66.1216 27.28 66.5056 26.992C66.9136 26.704 67.3336 26.596 67.7656 26.668C68.0056 26.716 68.2216 26.824 68.4136 26.992C68.6296 27.136 68.8336 27.376 69.0256 27.712C69.2416 28.048 69.3976 28.564 69.4936 29.26C69.5896 29.956 69.6136 30.784 69.5656 31.744C69.5416 31.984 69.5056 32.224 69.4576 32.464C70.3696 32.656 71.3776 32.428 72.4816 31.78C73.6096 31.132 74.5696 30.292 75.3616 29.26C75.4816 29.116 75.6376 29.032 75.8296 29.008ZM65.8216 35.02C66.1576 35.02 66.5056 34.864 66.8656 34.552C67.2496 34.24 67.5616 33.82 67.8016 33.292C66.2416 32.428 65.4256 31.252 65.3536 29.764C64.8736 30.22 64.5376 30.832 64.3456 31.6C64.1776 32.368 64.1896 33.04 64.3816 33.616C64.6456 34.552 65.1256 35.02 65.8216 35.02ZM68.1616 31.672C68.2096 31.096 68.2096 30.604 68.1616 30.196C68.1376 29.764 68.1016 29.416 68.0536 29.152C68.0056 28.888 67.9456 28.672 67.8736 28.504C67.8016 28.336 67.7296 28.216 67.6576 28.144C67.6096 28.072 67.5736 28.036 67.5496 28.036H67.5136C67.4176 28.036 67.2976 28.12 67.1536 28.288C67.0096 28.432 66.9016 28.636 66.8296 28.9C66.6856 29.404 66.7096 29.92 66.9016 30.448C67.0936 30.976 67.5136 31.456 68.1616 31.888C68.1616 31.816 68.1616 31.744 68.1616 31.672ZM92.1899 29.008C92.3819 28.984 92.5499 29.032 92.6939 29.152C92.8619 29.272 92.9459 29.428 92.9459 29.62C92.9699 29.812 92.9219 29.98 92.8019 30.124C91.8899 31.18 90.8459 31.948 89.6699 32.428C88.4939 32.884 87.3779 32.968 86.3219 32.68C85.0979 32.368 84.1499 31.612 83.4779 30.412C82.8779 32.5 81.9659 34.552 80.7419 36.568C79.9259 37.936 79.0979 39.064 78.2579 39.952C77.4179 40.864 76.6619 41.428 75.9899 41.644C75.7499 41.716 75.5219 41.752 75.3059 41.752C74.8739 41.752 74.5139 41.608 74.2259 41.32C72.8339 39.904 73.5299 35.032 76.3139 26.704C76.3619 26.536 76.4699 26.416 76.6379 26.344C76.8299 26.248 77.0099 26.236 77.1779 26.308C77.3699 26.356 77.5019 26.464 77.5739 26.632C77.6699 26.8 77.6819 26.98 77.6099 27.172C76.9139 29.284 76.3499 31.18 75.9179 32.86C75.4859 34.516 75.1979 35.788 75.0539 36.676C74.9339 37.54 74.8859 38.272 74.9099 38.872C74.9339 39.472 74.9699 39.844 75.0179 39.988C75.0659 40.156 75.1259 40.264 75.1979 40.312C75.2699 40.384 75.3899 40.384 75.5579 40.312C76.2299 40.096 77.0699 39.34 78.0779 38.044C79.0859 36.748 80.0339 35.152 80.9219 33.256C81.8099 31.336 82.3739 29.524 82.6139 27.82C82.6379 27.652 82.7099 27.52 82.8299 27.424C82.9739 27.304 83.1299 27.232 83.2979 27.208C83.6819 27.208 83.9099 27.4 83.9819 27.784C84.3659 29.8 85.2659 30.988 86.6819 31.348C87.4739 31.564 88.3259 31.48 89.2379 31.096C90.1739 30.712 91.0019 30.088 91.7219 29.224C91.8659 29.08 92.0219 29.008 92.1899 29.008ZM103.266 28.864C103.458 28.816 103.626 28.852 103.77 28.972C103.938 29.068 104.034 29.212 104.058 29.404C104.082 29.596 104.046 29.764 103.95 29.908C101.238 33.7 98.7664 36.388 96.5344 37.972C95.6464 38.596 94.7704 38.908 93.9064 38.908C93.2344 38.908 92.6464 38.728 92.1424 38.368C91.8544 38.152 91.6024 37.864 91.3864 37.504C91.1464 37.144 90.9424 36.64 90.7744 35.992C90.6064 35.344 90.5824 34.492 90.7024 33.436C90.7984 32.38 91.0624 31.18 91.4944 29.836V29.8C92.1664 27.616 92.9824 25.888 93.9424 24.616C94.9024 23.344 95.7664 22.696 96.5344 22.672C97.0864 22.648 97.4464 22.888 97.6144 23.392C97.8784 24.088 97.5664 25.072 96.6784 26.344C95.7904 27.616 94.4824 28.984 92.7544 30.448C92.4664 31.384 92.2624 32.248 92.1424 33.04C92.0224 33.832 91.9744 34.468 91.9984 34.948C92.0464 35.404 92.1304 35.812 92.2504 36.172C92.3944 36.508 92.5144 36.748 92.6104 36.892C92.7304 37.036 92.8504 37.156 92.9704 37.252C93.6904 37.78 94.6144 37.636 95.7424 36.82C97.8544 35.332 100.206 32.764 102.798 29.116C102.918 28.972 103.074 28.888 103.266 28.864ZM96.2824 24.184C95.4424 24.712 94.6144 25.852 93.7984 27.604C95.1904 26.212 96.0184 25.072 96.2824 24.184ZM117.343 28.828C117.535 28.756 117.715 28.768 117.883 28.864C118.051 28.936 118.171 29.068 118.243 29.26C118.315 29.428 118.303 29.596 118.207 29.764C117.559 31.156 116.827 32.584 116.011 34.048C115.195 35.512 114.295 36.988 113.311 38.476C112.351 39.988 111.391 41.212 110.431 42.148C109.471 43.108 108.655 43.588 107.983 43.588C107.815 43.588 107.659 43.552 107.515 43.48C106.531 43.096 106.219 41.608 106.579 39.016C106.915 36.592 107.803 33.16 109.243 28.72C109.219 28.72 109.195 28.732 109.171 28.756C109.171 28.756 109.159 28.756 109.135 28.756C108.607 29.116 108.163 29.392 107.803 29.584C107.467 29.776 106.999 29.992 106.399 30.232C105.823 30.472 105.271 30.58 104.743 30.556C104.215 30.532 103.723 30.364 103.267 30.052C102.355 29.404 101.887 28.504 101.863 27.352C101.839 26.2 102.271 24.94 103.159 23.572C103.711 22.708 104.371 21.952 105.139 21.304C105.931 20.656 106.603 20.512 107.155 20.872C107.491 21.064 107.683 21.376 107.731 21.808C107.803 22.24 107.599 23.08 107.119 24.328C106.639 25.552 105.835 27.16 104.707 29.152C105.451 29.248 106.675 28.732 108.379 27.604C108.691 27.388 108.919 27.244 109.063 27.172C109.231 27.076 109.411 26.98 109.603 26.884C109.819 26.788 109.999 26.752 110.143 26.776C110.287 26.8 110.431 26.86 110.575 26.956C110.935 27.244 110.995 27.748 110.755 28.468C108.355 35.908 107.407 40.42 107.911 42.004C107.959 42.1 107.995 42.172 108.019 42.22C108.211 42.244 108.499 42.088 108.883 41.752C109.291 41.416 109.783 40.888 110.359 40.168C110.959 39.448 111.595 38.584 112.267 37.576C112.963 36.568 113.719 35.332 114.535 33.868C115.375 32.404 116.179 30.844 116.947 29.188C117.043 28.996 117.175 28.876 117.343 28.828ZM103.375 26.38C103.159 27.22 103.207 27.892 103.519 28.396C105.271 25.348 106.207 23.284 106.327 22.204C106.039 22.372 105.703 22.648 105.319 23.032C104.959 23.416 104.575 23.92 104.167 24.544C103.783 25.144 103.519 25.756 103.375 26.38Z" fill="#313840"/>
</svg>
