<svg width="19" height="11" viewBox="0 0 19 11" fill="none" xmlns="http://www.w3.org/2000/svg">
<path d="M18.6656 0.530497C18.2002 -0.0696465 17.408 -0.169328 16.8373 0.276126L16.7262 0.372498L8.47626 8.3093C7.90155 8.8622 7.83805 9.82935 8.33441 10.4695C8.79976 11.0696 9.59198 11.1693 10.1627 10.7239L10.2738 10.6275L18.5237 2.6907C19.0984 2.1378 19.162 1.17065 18.6656 0.530497Z" fill="#AD9189"/>
<path d="M0.334415 0.530497C-0.161954 1.17065 -0.0984462 2.1378 0.476262 2.6907L8.72623 10.6275C9.30094 11.1804 10.1692 11.1097 10.6656 10.4695C11.162 9.82935 11.0984 8.8622 10.5237 8.3093L2.27377 0.372498C1.69906 -0.180395 0.830783 -0.109656 0.334415 0.530497Z" fill="#AD9189"/>
</svg>
