<svg width="126" height="17" viewBox="0 0 126 17" fill="none" xmlns="http://www.w3.org/2000/svg">
<path d="M4.94 13H0.188V0.993999H4.922C6.806 0.993999 8.336 1.546 9.512 2.65C10.7 3.754 11.294 5.2 11.294 6.988C11.294 8.8 10.706 10.258 9.53 11.362C8.354 12.454 6.824 13 4.94 13ZM4.922 10.75C6.074 10.75 6.986 10.39 7.658 9.67C8.342 8.95 8.684 8.056 8.684 6.988C8.684 5.896 8.354 5.002 7.694 4.306C7.046 3.598 6.128 3.244 4.94 3.244H2.744V10.75H4.922ZM20.4339 11.902C19.5939 12.778 18.4779 13.216 17.0859 13.216C15.6939 13.216 14.5779 12.778 13.7379 11.902C12.9099 11.014 12.4959 9.928 12.4959 8.644C12.4959 7.36 12.9099 6.28 13.7379 5.404C14.5779 4.528 15.6939 4.09 17.0859 4.09C18.4779 4.09 19.5939 4.528 20.4339 5.404C21.2739 6.28 21.6939 7.36 21.6939 8.644C21.6939 9.928 21.2739 11.014 20.4339 11.902ZM17.0859 11.182C17.7819 11.182 18.3279 10.942 18.7239 10.462C19.1199 9.97 19.3179 9.364 19.3179 8.644C19.3179 7.936 19.1199 7.342 18.7239 6.862C18.3279 6.37 17.7819 6.124 17.0859 6.124C16.4019 6.124 15.8619 6.37 15.4659 6.862C15.0699 7.342 14.8719 7.936 14.8719 8.644C14.8719 9.364 15.0699 9.97 15.4659 10.462C15.8619 10.942 16.4019 11.182 17.0859 11.182ZM25.8554 13.216C24.2234 13.216 23.4074 12.418 23.4074 10.822V0.993999H25.6934V10.21C25.6934 10.498 25.7594 10.732 25.8914 10.912C26.0354 11.092 26.2334 11.182 26.4854 11.182C26.8574 11.182 27.1214 11.092 27.2774 10.912L27.7634 12.658C27.3434 13.03 26.7074 13.216 25.8554 13.216ZM33.7368 13.216C32.6568 13.216 31.7628 12.772 31.0548 11.884V16.312H28.7688V4.306H31.0548V5.404C31.7388 4.528 32.6328 4.09 33.7368 4.09C34.8768 4.09 35.8008 4.498 36.5088 5.314C37.2288 6.118 37.5888 7.228 37.5888 8.644C37.5888 10.06 37.2288 11.176 36.5088 11.992C35.8008 12.808 34.8768 13.216 33.7368 13.216ZM33.0168 11.182C33.6768 11.182 34.2108 10.948 34.6188 10.48C35.0268 10.012 35.2308 9.4 35.2308 8.644C35.2308 7.9 35.0268 7.294 34.6188 6.826C34.2108 6.358 33.6768 6.124 33.0168 6.124C32.6448 6.124 32.2728 6.22 31.9008 6.412C31.5288 6.592 31.2468 6.826 31.0548 7.114V10.174C31.2468 10.45 31.5288 10.69 31.9008 10.894C32.2848 11.086 32.6568 11.182 33.0168 11.182ZM47.4349 13H45.1489V7.708C45.1489 6.652 44.6149 6.124 43.5469 6.124C42.7309 6.124 42.0709 6.46 41.5669 7.132V13H39.2629V0.993999H41.5669V5.422C42.3349 4.534 43.3489 4.09 44.6089 4.09C45.5449 4.09 46.2469 4.33 46.7149 4.81C47.1949 5.29 47.4349 5.962 47.4349 6.826V13ZM50.8383 3.37C50.4663 3.37 50.1483 3.238 49.8843 2.974C49.6203 2.698 49.4883 2.374 49.4883 2.002C49.4883 1.63 49.6203 1.312 49.8843 1.048C50.1483 0.783999 50.4663 0.651999 50.8383 0.651999C51.2223 0.651999 51.5463 0.783999 51.8103 1.048C52.0743 1.312 52.2063 1.63 52.2063 2.002C52.2063 2.374 52.0743 2.698 51.8103 2.974C51.5463 3.238 51.2223 3.37 50.8383 3.37ZM51.9903 13H49.7043V4.306H51.9903V13ZM62.429 13H60.125V7.744C60.125 6.664 59.591 6.124 58.523 6.124C57.731 6.124 57.071 6.46 56.543 7.132V13H54.257V4.306H56.543V5.422C56.855 5.05 57.275 4.738 57.803 4.486C58.343 4.222 58.937 4.09 59.585 4.09C60.521 4.09 61.229 4.336 61.709 4.828C62.189 5.32 62.429 5.998 62.429 6.862V13ZM65.8564 6.25H64.8484C64.3564 3.682 64.1104 2.284 64.1104 2.056C64.1104 1.72 64.2304 1.432 64.4704 1.192C64.7104 0.939999 65.0044 0.813999 65.3524 0.813999C65.6884 0.813999 65.9764 0.939999 66.2164 1.192C66.4684 1.432 66.5944 1.72 66.5944 2.056L65.8564 6.25ZM71.0824 13.216C70.3264 13.216 69.6004 13.096 68.9044 12.856C68.2204 12.616 67.6504 12.286 67.1944 11.866L68.1844 10.21C68.5324 10.534 68.9884 10.816 69.5524 11.056C70.1284 11.296 70.6744 11.416 71.1904 11.416C72.1624 11.416 72.6484 11.11 72.6484 10.498C72.6484 10.282 72.5224 10.108 72.2704 9.976C72.0184 9.832 71.7004 9.736 71.3164 9.688C70.9324 9.628 70.5184 9.538 70.0744 9.418C69.6304 9.286 69.2164 9.142 68.8324 8.986C68.4484 8.818 68.1304 8.554 67.8784 8.194C67.6264 7.822 67.5004 7.366 67.5004 6.826C67.5004 6.058 67.8184 5.41 68.4544 4.882C69.0904 4.354 69.9604 4.09 71.0644 4.09C72.3964 4.09 73.5604 4.486 74.5564 5.278L73.6384 6.898C73.3624 6.61 72.9904 6.37 72.5224 6.178C72.0544 5.986 71.5684 5.89 71.0644 5.89C70.6564 5.89 70.3264 5.968 70.0744 6.124C69.8224 6.28 69.6964 6.484 69.6964 6.736C69.6964 6.964 69.8704 7.144 70.2184 7.276C70.5784 7.396 71.0104 7.504 71.5144 7.6C72.0304 7.696 72.5404 7.828 73.0444 7.996C73.5484 8.152 73.9744 8.44 74.3224 8.86C74.6824 9.268 74.8624 9.796 74.8624 10.444C74.8624 11.26 74.5264 11.926 73.8544 12.442C73.1824 12.958 72.2584 13.216 71.0824 13.216ZM91.9516 13H89.4856L83.7616 5.17V13H81.2056V0.993999H83.8336L89.3956 8.536V0.993999H91.9516V13ZM101.645 11.902C100.805 12.778 99.6889 13.216 98.2969 13.216C96.9049 13.216 95.7889 12.778 94.9489 11.902C94.1209 11.014 93.7069 9.928 93.7069 8.644C93.7069 7.36 94.1209 6.28 94.9489 5.404C95.7889 4.528 96.9049 4.09 98.2969 4.09C99.6889 4.09 100.805 4.528 101.645 5.404C102.485 6.28 102.905 7.36 102.905 8.644C102.905 9.928 102.485 11.014 101.645 11.902ZM98.2969 11.182C98.9929 11.182 99.5389 10.942 99.9349 10.462C100.331 9.97 100.529 9.364 100.529 8.644C100.529 7.936 100.331 7.342 99.9349 6.862C99.5389 6.37 98.9929 6.124 98.2969 6.124C97.6129 6.124 97.0729 6.37 96.6769 6.862C96.2809 7.342 96.0829 7.936 96.0829 8.644C96.0829 9.364 96.2809 9.97 96.6769 10.462C97.0729 10.942 97.6129 11.182 98.2969 11.182ZM107.75 13.216C106.994 13.216 106.268 13.096 105.572 12.856C104.888 12.616 104.318 12.286 103.862 11.866L104.852 10.21C105.2 10.534 105.656 10.816 106.22 11.056C106.796 11.296 107.342 11.416 107.858 11.416C108.83 11.416 109.316 11.11 109.316 10.498C109.316 10.282 109.19 10.108 108.938 9.976C108.686 9.832 108.368 9.736 107.984 9.688C107.6 9.628 107.186 9.538 106.742 9.418C106.298 9.286 105.884 9.142 105.5 8.986C105.116 8.818 104.798 8.554 104.546 8.194C104.294 7.822 104.168 7.366 104.168 6.826C104.168 6.058 104.486 5.41 105.122 4.882C105.758 4.354 106.628 4.09 107.732 4.09C109.064 4.09 110.228 4.486 111.224 5.278L110.306 6.898C110.03 6.61 109.658 6.37 109.19 6.178C108.722 5.986 108.236 5.89 107.732 5.89C107.324 5.89 106.994 5.968 106.742 6.124C106.49 6.28 106.364 6.484 106.364 6.736C106.364 6.964 106.538 7.144 106.886 7.276C107.246 7.396 107.678 7.504 108.182 7.6C108.698 7.696 109.208 7.828 109.712 7.996C110.216 8.152 110.642 8.44 110.99 8.86C111.35 9.268 111.53 9.796 111.53 10.444C111.53 11.26 111.194 11.926 110.522 12.442C109.85 12.958 108.926 13.216 107.75 13.216ZM115.393 12.766C115.105 13.054 114.763 13.198 114.367 13.198C113.971 13.198 113.629 13.054 113.341 12.766C113.053 12.478 112.909 12.136 112.909 11.74C112.909 11.344 113.053 11.002 113.341 10.714C113.629 10.426 113.971 10.282 114.367 10.282C114.763 10.282 115.105 10.426 115.393 10.714C115.681 11.002 115.825 11.344 115.825 11.74C115.825 12.136 115.681 12.478 115.393 12.766ZM120.016 12.766C119.728 13.054 119.386 13.198 118.99 13.198C118.594 13.198 118.252 13.054 117.964 12.766C117.676 12.478 117.532 12.136 117.532 11.74C117.532 11.344 117.676 11.002 117.964 10.714C118.252 10.426 118.594 10.282 118.99 10.282C119.386 10.282 119.728 10.426 120.016 10.714C120.304 11.002 120.448 11.344 120.448 11.74C120.448 12.136 120.304 12.478 120.016 12.766ZM124.639 12.766C124.351 13.054 124.009 13.198 123.613 13.198C123.217 13.198 122.875 13.054 122.587 12.766C122.299 12.478 122.155 12.136 122.155 11.74C122.155 11.344 122.299 11.002 122.587 10.714C122.875 10.426 123.217 10.282 123.613 10.282C124.009 10.282 124.351 10.426 124.639 10.714C124.927 11.002 125.071 11.344 125.071 11.74C125.071 12.136 124.927 12.478 124.639 12.766Z" fill="#313840"/>
</svg>
