<svg width="110" height="14" viewBox="0 0 110 14" fill="none" xmlns="http://www.w3.org/2000/svg">
<path d="M6.096 11H4.448L0.144 0.327999H1.664L5.264 9.544L8.864 0.327999H10.384L6.096 11ZM12.8993 1.944C12.7499 2.09333 12.5633 2.168 12.3393 2.168C12.1153 2.168 11.9233 2.09333 11.7633 1.944C11.6033 1.784 11.5233 1.592 11.5233 1.368C11.5233 1.144 11.6033 0.952 11.7633 0.792C11.9233 0.631999 12.1153 0.551999 12.3393 0.551999C12.5633 0.551999 12.7499 0.631999 12.8993 0.792C13.0593 0.952 13.1393 1.144 13.1393 1.368C13.1393 1.592 13.0593 1.784 12.8993 1.944ZM12.9313 11H11.7313V3.272H12.9313V11ZM17.789 11.192C16.4877 11.192 15.4477 10.7867 14.669 9.976L15.277 9.112C15.5437 9.42133 15.9063 9.68267 16.365 9.896C16.8343 10.1093 17.3197 10.216 17.821 10.216C18.397 10.216 18.845 10.0933 19.165 9.848C19.4957 9.60267 19.661 9.28267 19.661 8.888C19.661 8.54667 19.4957 8.28 19.165 8.088C18.8343 7.88533 18.4343 7.736 17.965 7.64C17.4957 7.53333 17.0263 7.416 16.557 7.288C16.0983 7.14933 15.7037 6.92 15.373 6.6C15.0423 6.26933 14.877 5.83733 14.877 5.304C14.877 4.67467 15.133 4.14667 15.645 3.72C16.157 3.29333 16.8557 3.08 17.741 3.08C18.925 3.08 19.8797 3.45333 20.605 4.2L20.045 5.032C19.501 4.38133 18.733 4.056 17.741 4.056C17.2183 4.056 16.8023 4.17333 16.493 4.408C16.1837 4.632 16.029 4.92 16.029 5.272C16.029 5.528 16.1463 5.74133 16.381 5.912C16.6157 6.08267 16.909 6.20533 17.261 6.28C17.6237 6.35467 18.0077 6.45067 18.413 6.568C18.829 6.68533 19.213 6.81867 19.565 6.968C19.9277 7.10667 20.2263 7.34133 20.461 7.672C20.6957 7.992 20.813 8.38667 20.813 8.856C20.813 9.53867 20.5463 10.0987 20.013 10.536C19.4903 10.9733 18.749 11.192 17.789 11.192ZM29.5625 11H28.3625V9.848C27.7012 10.744 26.8318 11.192 25.7545 11.192C24.7305 11.192 23.8985 10.8293 23.2585 10.104C22.6292 9.368 22.3145 8.38133 22.3145 7.144C22.3145 5.91733 22.6345 4.936 23.2745 4.2C23.9145 3.45333 24.7412 3.08 25.7545 3.08C26.8212 3.08 27.6905 3.53333 28.3625 4.44V3.272H29.5625V11ZM26.0585 10.12C26.5172 10.12 26.9598 10.0027 27.3865 9.768C27.8238 9.52267 28.1492 9.22933 28.3625 8.888V5.4C28.1492 5.048 27.8238 4.75467 27.3865 4.52C26.9598 4.27467 26.5172 4.152 26.0585 4.152C25.2905 4.152 24.6825 4.43467 24.2345 5C23.7865 5.55467 23.5625 6.26933 23.5625 7.144C23.5625 8.01867 23.7865 8.73333 24.2345 9.288C24.6825 9.84267 25.2905 10.12 26.0585 10.12ZM38.7656 11H37.2296L34.4616 7.528L33.1656 8.792V11H31.9656V0.327999H33.1656V7.384L37.2296 3.272H38.7496L35.3256 6.776L38.7656 11ZM46.6164 11H45.4164V5.912C45.4164 5.26133 45.267 4.808 44.9684 4.552C44.6697 4.28533 44.2377 4.152 43.6724 4.152C43.235 4.152 42.803 4.26933 42.3764 4.504C41.9604 4.73867 41.635 5.02133 41.4004 5.352V11H40.2004V0.327999H41.4004V4.392C41.6884 4.02933 42.083 3.72 42.5844 3.464C43.0857 3.208 43.6084 3.08 44.1524 3.08C45.795 3.08 46.6164 3.90133 46.6164 5.544V11ZM55.8125 11H54.6125V9.848C53.9512 10.744 53.0818 11.192 52.0045 11.192C50.9805 11.192 50.1485 10.8293 49.5085 10.104C48.8792 9.368 48.5645 8.38133 48.5645 7.144C48.5645 5.91733 48.8845 4.936 49.5245 4.2C50.1645 3.45333 50.9912 3.08 52.0045 3.08C53.0712 3.08 53.9405 3.53333 54.6125 4.44V3.272H55.8125V11ZM52.3085 10.12C52.7672 10.12 53.2098 10.0027 53.6365 9.768C54.0738 9.52267 54.3992 9.22933 54.6125 8.888V5.4C54.3992 5.048 54.0738 4.75467 53.6365 4.52C53.2098 4.27467 52.7672 4.152 52.3085 4.152C51.5405 4.152 50.9325 4.43467 50.4845 5C50.0365 5.55467 49.8125 6.26933 49.8125 7.144C49.8125 8.01867 50.0365 8.73333 50.4845 9.288C50.9325 9.84267 51.5405 10.12 52.3085 10.12ZM62.0236 11.192C60.9676 11.192 60.0983 10.7387 59.4156 9.832V13.944H58.2156V3.272H59.4156V4.424C59.7036 4.01867 60.077 3.69333 60.5356 3.448C60.9943 3.20267 61.4903 3.08 62.0236 3.08C63.0476 3.08 63.8743 3.448 64.5036 4.184C65.1436 4.90933 65.4636 5.89067 65.4636 7.128C65.4636 8.36533 65.1436 9.352 64.5036 10.088C63.8743 10.824 63.0476 11.192 62.0236 11.192ZM61.7196 10.12C62.477 10.12 63.0796 9.84267 63.5276 9.288C63.9756 8.72267 64.1996 8.00267 64.1996 7.128C64.1996 6.25333 63.9756 5.53867 63.5276 4.984C63.0796 4.42933 62.477 4.152 61.7196 4.152C61.261 4.152 60.813 4.27467 60.3756 4.52C59.949 4.75467 59.629 5.04267 59.4156 5.384V8.872C59.629 9.224 59.949 9.52267 60.3756 9.768C60.813 10.0027 61.261 10.12 61.7196 10.12ZM74.1719 11H72.9719V9.848C72.3105 10.744 71.4412 11.192 70.3639 11.192C69.3399 11.192 68.5079 10.8293 67.8679 10.104C67.2385 9.368 66.9239 8.38133 66.9239 7.144C66.9239 5.91733 67.2439 4.936 67.8839 4.2C68.5239 3.45333 69.3505 3.08 70.3639 3.08C71.4305 3.08 72.2999 3.53333 72.9719 4.44V3.272H74.1719V11ZM70.6679 10.12C71.1265 10.12 71.5692 10.0027 71.9959 9.768C72.4332 9.52267 72.7585 9.22933 72.9719 8.888V5.4C72.7585 5.048 72.4332 4.75467 71.9959 4.52C71.5692 4.27467 71.1265 4.152 70.6679 4.152C69.8999 4.152 69.2919 4.43467 68.8439 5C68.3959 5.55467 68.1719 6.26933 68.1719 7.144C68.1719 8.01867 68.3959 8.73333 68.8439 9.288C69.2919 9.84267 69.8999 10.12 70.6679 10.12ZM78.543 11.192C77.391 11.192 76.815 10.5893 76.815 9.384V4.328H75.535V3.272H76.815V1.16H78.031V3.272H79.599V4.328H78.031V9.128C78.031 9.42667 78.095 9.66667 78.223 9.848C78.3617 10.0293 78.5537 10.12 78.799 10.12C79.1403 10.12 79.4123 10.008 79.615 9.784L79.967 10.696C79.615 11.0267 79.1403 11.192 78.543 11.192ZM87.6941 11H86.5101V5.944C86.5101 5.29333 86.3608 4.83467 86.0621 4.568C85.7635 4.29067 85.3315 4.152 84.7661 4.152C84.3181 4.152 83.8861 4.26933 83.4701 4.504C83.0541 4.73867 82.7235 5.02133 82.4781 5.352V11H81.2781V3.272H82.4781V4.392C82.7768 4.02933 83.1768 3.72 83.6781 3.464C84.1795 3.208 84.7021 3.08 85.2461 3.08C86.8781 3.08 87.6941 3.912 87.6941 5.576V11ZM96.9062 11H95.7063V9.848C95.0449 10.744 94.1756 11.192 93.0983 11.192C92.0743 11.192 91.2423 10.8293 90.6023 10.104C89.9729 9.368 89.6583 8.38133 89.6583 7.144C89.6583 5.91733 89.9783 4.936 90.6183 4.2C91.2583 3.45333 92.0849 3.08 93.0983 3.08C94.1649 3.08 95.0343 3.53333 95.7063 4.44V3.272H96.9062V11ZM93.4023 10.12C93.8609 10.12 94.3036 10.0027 94.7303 9.768C95.1676 9.52267 95.4929 9.22933 95.7063 8.888V5.4C95.4929 5.048 95.1676 4.75467 94.7303 4.52C94.3036 4.27467 93.8609 4.152 93.4023 4.152C92.6343 4.152 92.0263 4.43467 91.5783 5C91.1303 5.55467 90.9062 6.26933 90.9062 7.144C90.9062 8.01867 91.1303 8.73333 91.5783 9.288C92.0263 9.84267 92.6343 10.12 93.4023 10.12ZM109.837 11H108.637V5.752C108.637 4.68533 108.163 4.152 107.213 4.152C106.829 4.152 106.445 4.26933 106.061 4.504C105.677 4.728 105.379 5.00533 105.165 5.336V11H103.965V5.752C103.965 4.68533 103.491 4.152 102.541 4.152C102.168 4.152 101.789 4.26933 101.405 4.504C101.032 4.73867 100.733 5.02133 100.509 5.352V11H99.3094V3.272H100.509V4.392C100.712 4.08267 101.048 3.78933 101.517 3.512C101.997 3.224 102.499 3.08 103.021 3.08C103.576 3.08 104.029 3.21333 104.381 3.48C104.733 3.74667 104.968 4.09333 105.085 4.52C105.32 4.136 105.677 3.8 106.157 3.512C106.637 3.224 107.144 3.08 107.677 3.08C109.117 3.08 109.837 3.85867 109.837 5.416V11Z" fill="#313840"/>
</svg>
