<svg width="24" height="24" viewBox="0 0 24 24" fill="none" xmlns="http://www.w3.org/2000/svg">
<path fill-rule="evenodd" clip-rule="evenodd" d="M10 3.25C7.65279 3.25 5.75 5.15279 5.75 7.5C5.75 9.84721 7.65279 11.75 10 11.75C12.3472 11.75 14.25 9.84721 14.25 7.5C14.25 5.15279 12.3472 3.25 10 3.25ZM7.25 7.5C7.25 5.98122 8.48122 4.75 10 4.75C11.5188 4.75 12.75 5.98122 12.75 7.5C12.75 9.01878 11.5188 10.25 10 10.25C8.48122 10.25 7.25 9.01878 7.25 7.5Z" fill="#313840"/>
<path d="M3.75 17C3.75 15.7574 4.75736 14.75 6 14.75H6.34087C6.36722 14.75 6.39342 14.7542 6.41847 14.7623L7.28398 15.045C7.96351 15.2669 8.66343 15.4033 9.36804 15.4543C9.51632 15.4651 9.64645 15.3609 9.67996 15.2161C9.75553 14.8894 9.85397 14.5714 9.97351 14.264C10.0263 14.1283 9.92712 13.9783 9.78158 13.9739C9.09499 13.9532 8.41064 13.8349 7.74959 13.6191L6.88407 13.3364C6.70869 13.2792 6.52536 13.25 6.34087 13.25H6C3.92893 13.25 2.25 14.9289 2.25 17V18.1883C2.25 18.9415 2.79588 19.5837 3.53927 19.7051C5.69742 20.0575 7.87718 20.2321 10.0568 20.229C10.2088 20.2288 10.3044 20.0645 10.2363 19.9285C10.0895 19.6351 9.96263 19.3299 9.8576 19.0147C9.80142 18.8462 9.64688 18.7278 9.46922 18.7254C7.56646 18.6992 5.66516 18.5323 3.78097 18.2247C3.76311 18.2218 3.75 18.2064 3.75 18.1883V17Z" fill="#313840"/>
<path fill-rule="evenodd" clip-rule="evenodd" d="M15.5326 10.5093C15.8233 10.3478 16.1768 10.3478 16.4675 10.5093L20.6675 12.8426C20.973 13.0124 21.1626 13.3345 21.1626 13.684V18.3162C21.1626 18.6657 20.973 18.9878 20.6675 19.1576L16.4675 21.4909C16.1768 21.6524 15.8233 21.6524 15.5326 21.4909L11.3326 19.1576C11.0271 18.9878 10.8376 18.6657 10.8376 18.3162V13.684C10.8376 13.3345 11.0271 13.0124 11.3326 12.8426L15.5326 10.5093ZM16.0426 11.2742C16.0161 11.2595 15.984 11.2595 15.9576 11.2742L11.7576 13.6075C11.7298 13.623 11.7126 13.6522 11.7126 13.684V18.3162C11.7126 18.348 11.7298 18.3772 11.7576 18.3927L15.9576 20.726C15.984 20.7407 16.0161 20.7407 16.0426 20.726L20.2426 18.3927C20.2703 18.3772 20.2876 18.348 20.2876 18.3162V13.684C20.2876 13.6522 20.2703 13.623 20.2426 13.6075L16.0426 11.2742Z" fill="#313840"/>
<path fill-rule="evenodd" clip-rule="evenodd" d="M13.2292 16.0001C13.2292 14.4698 14.4698 13.2293 16.0001 13.2293C17.5303 13.2293 18.7709 14.4698 18.7709 16.0001C18.7709 17.5304 17.5303 18.7709 16.0001 18.7709C14.4698 18.7709 13.2292 17.5304 13.2292 16.0001ZM16.0001 14.1043C14.953 14.1043 14.1042 14.9531 14.1042 16.0001C14.1042 17.0471 14.953 17.8959 16.0001 17.8959C17.0471 17.8959 17.8959 17.0471 17.8959 16.0001C17.8959 14.9531 17.0471 14.1043 16.0001 14.1043Z" fill="#313840"/>
<path d="M16.4675 10.5093L16.5768 10.3126L16.4675 10.5093ZM15.5326 10.5093L15.4234 10.3126V10.3126L15.5326 10.5093ZM20.6675 12.8426L20.5582 13.0393L20.6675 12.8426ZM20.6675 19.1576L20.7768 19.3543H20.7768L20.6675 19.1576ZM16.4675 21.4909L16.3582 21.2942L16.4675 21.4909ZM15.5326 21.4909L15.4234 21.6876H15.4234L15.5326 21.4909ZM11.3326 19.1576L11.2234 19.3543H11.2234L11.3326 19.1576ZM11.3326 12.8426L11.4419 13.0393L11.3326 12.8426ZM15.9576 11.2742L15.8483 11.0775L15.8483 11.0775L15.9576 11.2742ZM16.0426 11.2742L16.1518 11.0775L16.1518 11.0775L16.0426 11.2742ZM11.7576 13.6075L11.8668 13.8042L11.8668 13.8042L11.7576 13.6075ZM11.7576 18.3927L11.8668 18.196L11.7576 18.3927ZM15.9576 20.726L15.8483 20.9227L15.8483 20.9227L15.9576 20.726ZM16.0426 20.726L15.9333 20.5293H15.9333L16.0426 20.726ZM20.2426 18.3927L20.3518 18.5894L20.3518 18.5894L20.2426 18.3927ZM20.2426 13.6075L20.1333 13.8042L20.2426 13.6075ZM16.5768 10.3126C16.2181 10.1134 15.782 10.1134 15.4234 10.3126L15.6419 10.706C15.8646 10.5822 16.1355 10.5822 16.3582 10.706L16.5768 10.3126ZM20.7768 12.646L16.5768 10.3126L16.3582 10.706L20.5582 13.0393L20.7768 12.646ZM21.3876 13.684C21.3876 13.2528 21.1537 12.8554 20.7768 12.646L20.5582 13.0393C20.7923 13.1694 20.9376 13.4162 20.9376 13.684H21.3876ZM21.3876 18.3162V13.684H20.9376V18.3162H21.3876ZM20.7768 19.3543C21.1537 19.1448 21.3876 18.7475 21.3876 18.3162H20.9376C20.9376 18.584 20.7923 18.8308 20.5582 18.9609L20.7768 19.3543ZM16.5768 21.6876L20.7768 19.3543L20.5582 18.9609L16.3582 21.2942L16.5768 21.6876ZM15.4234 21.6876C15.782 21.8868 16.2181 21.8868 16.5768 21.6876L16.3582 21.2942C16.1355 21.418 15.8646 21.418 15.6419 21.2942L15.4234 21.6876ZM11.2234 19.3543L15.4234 21.6876L15.6419 21.2942L11.4419 18.9609L11.2234 19.3543ZM10.6126 18.3162C10.6126 18.7475 10.8464 19.1448 11.2234 19.3543L11.4419 18.9609C11.2078 18.8308 11.0626 18.584 11.0626 18.3162H10.6126ZM10.6126 13.684V18.3162H11.0626V13.684H10.6126ZM11.2234 12.646C10.8464 12.8554 10.6126 13.2528 10.6126 13.684H11.0626C11.0626 13.4162 11.2078 13.1694 11.4419 13.0393L11.2234 12.646ZM15.4234 10.3126L11.2234 12.646L11.4419 13.0393L15.6419 10.706L15.4234 10.3126ZM16.0668 11.4709C16.0253 11.494 15.9748 11.494 15.9333 11.4709L16.1518 11.0775C16.0574 11.0251 15.9427 11.0251 15.8483 11.0775L16.0668 11.4709ZM11.8668 13.8042L16.0668 11.4709L15.8483 11.0775L11.6483 13.4108L11.8668 13.8042ZM11.9376 13.684C11.9376 13.734 11.9105 13.78 11.8668 13.8042L11.6483 13.4108C11.5491 13.466 11.4876 13.5705 11.4876 13.684H11.9376ZM11.9376 18.3162V13.684H11.4876V18.3162H11.9376ZM11.8668 18.196C11.9105 18.2202 11.9376 18.2663 11.9376 18.3162H11.4876C11.4876 18.4297 11.5491 18.5343 11.6483 18.5894L11.8668 18.196ZM16.0668 20.5293L11.8668 18.196L11.6483 18.5894L15.8483 20.9227L16.0668 20.5293ZM15.9333 20.5293C15.9748 20.5063 16.0253 20.5063 16.0668 20.5293L15.8483 20.9227C15.9427 20.9751 16.0574 20.9751 16.1518 20.9227L15.9333 20.5293ZM20.1333 18.196L15.9333 20.5293L16.1518 20.9227L20.3518 18.5894L20.1333 18.196ZM20.0626 18.3162C20.0626 18.2663 20.0896 18.2202 20.1333 18.196L20.3518 18.5894C20.451 18.5343 20.5126 18.4297 20.5126 18.3162H20.0626ZM20.0626 13.684V18.3162H20.5126V13.684H20.0626ZM20.1333 13.8042C20.0896 13.78 20.0626 13.7339 20.0626 13.684H20.5126C20.5126 13.5705 20.451 13.466 20.3518 13.4108L20.1333 13.8042ZM15.9333 11.4709L20.1333 13.8042L20.3518 13.4108L16.1518 11.0775L15.9333 11.4709ZM16.0001 13.0043C14.3455 13.0043 13.0042 14.3456 13.0042 16.0001H13.4542C13.4542 14.5941 14.594 13.4543 16.0001 13.4543V13.0043ZM18.9959 16.0001C18.9959 14.3456 17.6546 13.0043 16.0001 13.0043V13.4543C17.4061 13.4543 18.5459 14.5941 18.5459 16.0001H18.9959ZM16.0001 18.9959C17.6546 18.9959 18.9959 17.6547 18.9959 16.0001H18.5459C18.5459 17.4061 17.4061 18.5459 16.0001 18.5459V18.9959ZM13.0042 16.0001C13.0042 17.6547 14.3455 18.9959 16.0001 18.9959V18.5459C14.594 18.5459 13.4542 17.4061 13.4542 16.0001H13.0042ZM14.3292 16.0001C14.3292 15.0773 15.0773 14.3293 16.0001 14.3293V13.8793C14.8288 13.8793 13.8792 14.8288 13.8792 16.0001H14.3292ZM16.0001 17.6709C15.0773 17.6709 14.3292 16.9229 14.3292 16.0001H13.8792C13.8792 17.1714 14.8288 18.1209 16.0001 18.1209V17.6709ZM17.6709 16.0001C17.6709 16.9229 16.9228 17.6709 16.0001 17.6709V18.1209C17.1714 18.1209 18.1209 17.1714 18.1209 16.0001H17.6709ZM16.0001 14.3293C16.9228 14.3293 17.6709 15.0773 17.6709 16.0001H18.1209C18.1209 14.8288 17.1714 13.8793 16.0001 13.8793V14.3293Z" fill="#313840"/>
</svg>
