<svg width="20" height="20" viewBox="0 0 20 20" fill="none" xmlns="http://www.w3.org/2000/svg">
<circle cx="10" cy="10" r="9.3" fill="url(#paint0_linear_145_121)" fill-opacity="0.5" stroke="url(#paint1_linear_145_121)" stroke-width="1.4"/>
<path d="M6.86128 13H5.72528V7.664H8.22128C8.78128 7.664 9.21861 7.82933 9.53328 8.16C9.85328 8.48533 10.0133 8.89333 10.0133 9.384C10.0133 9.86933 9.85328 10.2773 9.53328 10.608C9.21328 10.9333 8.77595 11.096 8.22128 11.096H6.86128V13ZM8.06128 10.096C8.29061 10.096 8.47995 10.032 8.62928 9.904C8.77861 9.77067 8.85328 9.59733 8.85328 9.384C8.85328 9.16533 8.77861 8.992 8.62928 8.864C8.47995 8.73067 8.29061 8.664 8.06128 8.664H6.86128V10.096H8.06128ZM12.6293 13.096C11.6799 13.096 10.9226 12.8133 10.3573 12.248L10.9813 11.36C11.4453 11.8453 12.0106 12.088 12.6773 12.088C12.9759 12.088 13.2053 12.032 13.3653 11.92C13.5253 11.8027 13.6053 11.6613 13.6053 11.496C13.6053 11.352 13.5279 11.2347 13.3733 11.144C13.2239 11.048 13.0346 10.9787 12.8053 10.936C12.5813 10.8933 12.3359 10.8347 12.0693 10.76C11.8026 10.68 11.5546 10.5893 11.3253 10.488C11.1013 10.3867 10.9119 10.2267 10.7573 10.008C10.6079 9.78933 10.5333 9.52267 10.5333 9.208C10.5333 8.74933 10.7173 8.36533 11.0853 8.056C11.4533 7.74133 11.9439 7.584 12.5573 7.584C13.4053 7.584 14.0986 7.832 14.6373 8.328L14.0053 9.176C13.5839 8.78667 13.0666 8.592 12.4533 8.592C12.2186 8.592 12.0346 8.64 11.9013 8.736C11.7679 8.832 11.7013 8.96 11.7013 9.12C11.7013 9.248 11.7759 9.35467 11.9253 9.44C12.0799 9.52533 12.2693 9.592 12.4933 9.64C12.7226 9.68267 12.9679 9.744 13.2293 9.824C13.4959 9.904 13.7413 9.99733 13.9653 10.104C14.1946 10.2053 14.3839 10.368 14.5333 10.592C14.6879 10.8107 14.7653 11.0747 14.7653 11.384C14.7653 11.896 14.5813 12.3093 14.2133 12.624C13.8506 12.9387 13.3226 13.096 12.6293 13.096Z" fill="#73582F"/>
<defs>
<linearGradient id="paint0_linear_145_121" x1="2.22222" y1="-1.66667" x2="18.3333" y2="21.6667" gradientUnits="userSpaceOnUse">
<stop stop-color="#8D7249"/>
<stop offset="1" stop-color="#B5A080"/>
</linearGradient>
<linearGradient id="paint1_linear_145_121" x1="0" y1="0" x2="20.0001" y2="20.0001" gradientUnits="userSpaceOnUse">
<stop stop-color="#D4BD9A"/>
<stop offset="1" stop-color="#73582F"/>
</linearGradient>
</defs>
</svg>
