<svg width="18" height="21" viewBox="0 0 18 21" fill="none" xmlns="http://www.w3.org/2000/svg">
<path fill-rule="evenodd" clip-rule="evenodd" d="M4.24999 9C4.24999 6.37665 6.37664 4.25 8.99999 4.25C11.6233 4.25 13.75 6.37665 13.75 9C13.75 11.6234 11.6233 13.75 8.99999 13.75C6.37664 13.75 4.24999 11.6234 4.24999 9ZM8.99999 5.75C7.20507 5.75 5.74999 7.20507 5.74999 9C5.74999 10.7949 7.20507 12.25 8.99999 12.25C10.7949 12.25 12.25 10.7949 12.25 9C12.25 7.20507 10.7949 5.75 8.99999 5.75Z" fill="#901020"/>
<path fill-rule="evenodd" clip-rule="evenodd" d="M0.524358 7.85685C0.878685 3.55824 4.47084 0.25 8.78403 0.25H9.21597C13.5292 0.25 17.1213 3.55824 17.4756 7.85685C17.666 10.166 16.9527 12.4589 15.486 14.2526L10.693 20.1144C9.81797 21.1845 8.18202 21.1845 7.30702 20.1144L2.51396 14.2526C1.0473 12.4589 0.334019 10.166 0.524358 7.85685ZM8.78403 1.75C5.25149 1.75 2.30948 4.45948 2.01929 7.98008C1.86087 9.90192 2.45452 11.8102 3.67518 13.3031L8.46824 19.1649C8.74307 19.501 9.25692 19.501 9.53175 19.1649L14.3248 13.3031C15.5455 11.8102 16.1391 9.90192 15.9807 7.98008C15.6905 4.45948 12.7485 1.75 9.21597 1.75H8.78403Z" fill="#901020"/>
</svg>
