<svg width="16" height="20" viewBox="0 0 16 20" fill="none" xmlns="http://www.w3.org/2000/svg">
<path fill-rule="evenodd" clip-rule="evenodd" d="M3.25 5.25V5.13012C3.25 2.96238 4.71761 1.06964 6.81705 0.529786C7.59306 0.330241 8.40694 0.330241 9.18295 0.529786C11.2824 1.06964 12.75 2.96238 12.75 5.13013V5.25H14.2511C14.8224 5.25 15.3072 5.66898 15.3901 6.23423L15.6087 7.72668C16.0393 10.6651 16.0393 13.6507 15.6087 16.5891C15.4008 18.0081 14.2565 19.1052 12.83 19.2531L12.2011 19.3183C9.40786 19.608 6.59213 19.608 3.79887 19.3183L3.17 19.2531C1.74346 19.1052 0.599169 18.0081 0.391252 16.5891C-0.0392918 13.6507 -0.0392916 10.6651 0.391252 7.72668L0.609926 6.23423C0.692746 5.66898 1.17759 5.25 1.74887 5.25H3.25ZM7.19062 1.98252C7.72157 1.84599 8.27843 1.84599 8.80938 1.98252C10.2458 2.3519 11.25 3.64693 11.25 5.13013V5.25H4.75V5.13012C4.75 3.64693 5.75415 2.3519 7.19062 1.98252ZM3.25 6.75V9C3.25 9.41421 3.58579 9.75 4 9.75C4.41421 9.75 4.75 9.41421 4.75 9V6.75H11.25V9C11.25 9.41421 11.5858 9.75 12 9.75C12.4142 9.75 12.75 9.41421 12.75 9V6.75H13.9496L14.1246 7.94414C14.534 10.7384 14.534 13.5774 14.1246 16.3717C14.0161 17.1118 13.4193 17.684 12.6753 17.7611L12.0464 17.8264C9.35601 18.1054 6.64398 18.1054 3.95359 17.8264L3.32472 17.7611C2.58068 17.684 1.98385 17.1118 1.87541 16.3717C1.46599 13.5774 1.46599 10.7384 1.87541 7.94414L2.05037 6.75H3.25Z" fill="#313840"/>
</svg>
