<svg width="22" height="22" viewBox="0 0 22 22" fill="none" xmlns="http://www.w3.org/2000/svg">
<path fill-rule="evenodd" clip-rule="evenodd" d="M8.26535 2.63335C9.31298 2.63335 9.70243 2.63879 10.0586 2.72682C10.3938 2.80967 10.7135 2.94624 11.0051 3.13124C11.3149 3.32777 11.588 3.60544 12.3121 4.3625L17.2603 9.53554C17.8384 10.14 18.2387 10.5593 18.5242 10.9106C18.8037 11.2546 18.9282 11.4807 18.99 11.6812C19.1247 12.1188 19.1195 12.5876 18.9751 13.0222C18.9089 13.2212 18.7793 13.4445 18.4923 13.7822C18.199 14.1271 17.7896 14.5374 17.1981 15.1289L15.1288 17.1981C14.5374 17.7896 14.1271 18.199 13.7822 18.4923C13.4445 18.7794 13.2212 18.9089 13.0222 18.9751C12.5876 19.1195 12.1188 19.1247 11.6812 18.99C11.4807 18.9283 11.2546 18.8037 10.9106 18.5242C10.5593 18.2387 10.14 17.8384 9.53552 17.2603L4.36249 12.3122C3.60543 11.588 3.32776 11.3149 3.13122 11.0051C2.94623 10.7135 2.80965 10.3939 2.7268 10.0586C2.63878 9.70245 2.63334 9.313 2.63334 8.26536V6.63335C2.63334 5.78007 2.63396 5.18823 2.67155 4.7281C2.70838 4.27732 2.77667 4.02387 2.87312 3.83457C3.08404 3.42062 3.4206 3.08406 3.83456 2.87314C4.02385 2.77669 4.2773 2.7084 4.72809 2.67157C5.18821 2.63397 5.78006 2.63335 6.63334 2.63335H8.26535ZM10.4425 1.17355C9.87391 1.03304 9.27786 1.03316 8.36641 1.03334L8.26535 1.03335H6.63334L6.59934 1.03335C5.78812 1.03334 5.13076 1.03334 4.5978 1.07688C4.04807 1.1218 3.56061 1.217 3.10817 1.44753C2.39316 1.81185 1.81183 2.39317 1.44751 3.10819C1.21698 3.56063 1.12178 4.04808 1.07687 4.59781C1.03332 5.13078 1.03333 5.78813 1.03334 6.59935L1.03334 6.63335V8.26536L1.03332 8.36642C1.03314 9.27787 1.03302 9.87393 1.17353 10.4425C1.29781 10.9454 1.50267 11.4248 1.78016 11.8622C2.0939 12.3567 2.52471 12.7687 3.18349 13.3985L3.18349 13.3985L3.25653 13.4684L8.42957 18.4165L8.45381 18.4397C9.02822 18.9891 9.49403 19.4347 9.90156 19.7659C10.3222 20.1077 10.7327 20.3721 11.2105 20.5192C11.9664 20.7519 12.7761 20.7429 13.5267 20.4934C14.0011 20.3358 14.4056 20.0623 14.8186 19.7113C15.2186 19.3711 15.6744 18.9153 16.2364 18.3533L16.2365 18.3532L16.2602 18.3295L18.3295 16.2602L18.3533 16.2364L18.3533 16.2364C18.9153 15.6744 19.3711 15.2186 19.7112 14.8186C20.0623 14.4057 20.3358 14.0011 20.4934 13.5267C20.7428 12.7761 20.7518 11.9664 20.5191 11.2105C20.3721 10.7327 20.1077 10.3222 19.7659 9.90157C19.4347 9.49406 18.9892 9.02827 18.4397 8.45388L18.4397 8.45386L18.4165 8.42958L13.4684 3.25655L13.3985 3.18351L13.3985 3.1835C12.7686 2.52473 12.3567 2.09391 11.8622 1.78018C11.4248 1.50269 10.9453 1.29783 10.4425 1.17355ZM6.30003 7.79168C6.30003 6.96785 6.96787 6.30001 7.79169 6.30001C8.61552 6.30001 9.28336 6.96785 9.28336 7.79168C9.28336 8.6155 8.61552 9.28335 7.79169 9.28335C6.96787 9.28335 6.30003 8.6155 6.30003 7.79168ZM7.79169 4.70001C6.08421 4.70001 4.70003 6.0842 4.70003 7.79168C4.70003 9.49916 6.08421 10.8833 7.79169 10.8833C9.49917 10.8833 10.8834 9.49916 10.8834 7.79168C10.8834 6.0842 9.49917 4.70001 7.79169 4.70001Z" fill="black"/>
</svg>
