<svg width="15" height="15" viewBox="0 0 15 15" fill="none" xmlns="http://www.w3.org/2000/svg">
<path fill-rule="evenodd" clip-rule="evenodd" d="M13.6324 1.36769C11.8088 -0.455885 8.84159 -0.455915 7.01786 1.36771C6.34265 2.04318 5.89552 2.89542 5.72501 3.83142C5.54859 4.78743 4.78807 5.54814 3.83255 5.72469C2.89561 5.89537 2.04336 6.34246 1.3678 7.01775C-0.455812 8.84135 -0.455812 11.8086 1.3678 13.6322C3.19142 15.4558 6.15867 15.4558 7.98228 13.6322C8.65758 12.9566 9.1047 12.1044 9.27536 11.1674C9.45187 10.2119 10.2126 9.45143 11.1686 9.275C12.1046 9.1045 12.9569 8.65737 13.6324 7.98217C15.456 6.15845 15.456 3.19123 13.6324 1.36769ZM2.48178 9.27637C2.2392 9.27637 2.04233 9.07949 2.04233 8.83691C2.04233 8.59434 2.2392 8.39746 2.48178 8.39746C2.72436 8.39746 2.92123 8.59434 2.92123 8.83691C2.92123 9.07949 2.72436 9.27637 2.48178 9.27637ZM3.92537 10.0137C3.92537 10.2563 4.12224 10.4531 4.36482 10.4531C4.6074 10.4531 4.80428 10.2563 4.80428 10.0137C4.80428 9.77109 4.6074 9.57422 4.36482 9.57422C4.12224 9.57422 3.92537 9.77109 3.92537 10.0137ZM4.36482 8.09943C4.12224 8.09943 3.92537 7.90254 3.92537 7.65994C3.92537 7.41735 4.12224 7.22046 4.36482 7.22046C4.6074 7.22046 4.80428 7.41735 4.80428 7.65994C4.80428 7.90254 4.6074 8.09943 4.36482 8.09943ZM7.69139 3.18784C7.69139 3.43046 7.88827 3.62738 8.13085 3.62738C8.37343 3.62738 8.5703 3.43046 8.5703 3.18784C8.5703 2.94521 8.37343 2.74829 8.13085 2.74829C7.88827 2.74829 7.69139 2.94521 7.69139 3.18784ZM10.0139 4.80408C9.77129 4.80408 9.57442 4.60728 9.57442 4.36481C9.57442 4.12233 9.77129 3.92554 10.0139 3.92554C10.2564 3.92554 10.4533 4.12233 10.4533 4.36481C10.4533 4.60728 10.2564 4.80408 10.0139 4.80408ZM9.57442 2.01099C9.57442 2.25356 9.77129 2.45044 10.0139 2.45044C10.2564 2.45044 10.4533 2.25356 10.4533 2.01099C10.4533 1.76841 10.2564 1.57153 10.0139 1.57153C9.77129 1.57153 9.57442 1.76841 9.57442 2.01099Z" fill="#313840" fill-opacity="0.6"/>
</svg>
